{
  "accessors": [
    {
      "bufferView": 2,
      "componentType": 5126,
      "count": 3929,
      "max": [
        1.2369749546051025,
        0.9409810900688171,
        2.976694107055664
      ],
      "min": [
        -0.9429463744163513,
        -0.9800843000411987,
        -1.0627543926239014
      ],
      "type": "VEC3"
    },
    {
      "bufferView": 2,
      "byteOffset": 47148,
      "componentType": 5126,
      "count": 3929,
      "max": [
        1.0,
        1.0,
        1.0
      ],
      "min": [
        -1.0,
        -1.0,
        -1.0
      ],
      "type": "VEC3"
    },
    {
      "bufferView": 1,
      "componentType": 5126,
      "count": 3929,
      "max": [
        0.8981784582138062,
        0.9764115810394287
      ],
      "min": [
        0.13686977326869965,
        0.3691033720970154
      ],
      "type": "VEC2"
    },
    {
      "bufferView": 0,
      "componentType": 5125,
      "count": 18894,
      "type": "SCALAR"
    },
    {
      "bufferView": 2,
      "byteOffset": 94296,
      "componentType": 5126,
      "count": 4810,
      "max": [
        0.7622474431991577,
        0.7564043998718262,
        2.669261932373047
      ],
      "min": [
        -1.1563136577606201,
        -0.7856267094612122,
        0.4121542274951935
      ],
      "type": "VEC3"
    },
    {
      "bufferView": 2,
      "byteOffset": 152016,
      "componentType": 5126,
      "count": 4810,
      "max": [
        0.9963942766189575,
        0.9963994026184082,
        0.999579668045044
      ],
      "min": [
        -0.9963604807853699,
        -0.9963994026184082,
        -0.9967167973518372
      ],
      "type": "VEC3"
    },
    {
      "bufferView": 1,
      "byteOffset": 31432,
      "componentType": 5126,
      "count": 4810,
      "max": [
        0.8845524787902832,
        0.5692278146743774
      ],
      "min": [
        0.5920101404190063,
        0.4229600131511688
      ],
      "type": "VEC2"
    },
    {
      "bufferView": 0,
      "byteOffset": 75576,
      "componentType": 5125,
      "count": 27210,
      "type": "SCALAR"
    },
    {
      "bufferView": 2,
      "byteOffset": 209736,
      "componentType": 5126,
      "count": 941,
      "max": [
        0.30243587493896484,
        -0.6439346075057983,
        0.022508293390274048
      ],
      "min": [
        -0.32564908266067505,
        -0.9696050882339478,
        -0.4882851839065552
      ],
      "type": "VEC3"
    },
    {
      "bufferView": 2,
      "byteOffset": 221028,
      "componentType": 5126,
      "count": 941,
      "max": [
        0.9990789890289307,
        0.9972108602523804,
        0.9978670477867126
      ],
      "min": [
        -0.9990789890289307,
        -0.9956009387969971,
        -0.9978670477867126
      ],
      "type": "VEC3"
    },
    {
      "bufferView": 1,
      "byteOffset": 69912,
      "componentType": 5126,
      "count": 941,
      "max": [
        0.8981784582138062,
        0.7352907657623291
      ],
      "min": [
        0.14544706046581268,
        0.36803433299064636
      ],
      "type": "VEC2"
    },
    {
      "bufferView": 0,
      "byteOffset": 184416,
      "componentType": 5125,
      "count": 4410,
      "type": "SCALAR"
    }
  ],
  "asset": {
    "extras": {
      "author": "giga (https://sketchfab.com/gits3d)",
      "license": "CC-BY-4.0 (http://creativecommons.org/licenses/by/4.0/)",
      "source": "https://sketchfab.com/3d-models/blender-28a203c1ca3c41ca8a45ae79b0d8509e",
      "title": "Blender"
    },
    "generator": "Sketchfab-12.66.0",
    "version": "2.0"
  },
  "bufferViews": [
    {
      "buffer": 0,
      "byteLength": 202056,
      "name": "floatBufferViews",
      "target": 34963
    },
    {
      "buffer": 0,
      "byteLength": 77440,
      "byteOffset": 202056,
      "byteStride": 8,
      "name": "floatBufferViews",
      "target": 34962
    },
    {
      "buffer": 0,
      "byteLength": 232320,
      "byteOffset": 279496,
      "byteStride": 12,
      "name": "floatBufferViews",
      "target": 34962
    }
  ],
  "buffers": [
    {
      "byteLength": 511816,
      "uri": "scene.bin"
    }
  ],
  "extensionsUsed": [
    "KHR_materials_transmission"
  ],
  "images": [
    {
      "uri": "textures/blender_baseColor.png"
    }
  ],
  "materials": [
    {
      "doubleSided": true,
      "name": "blender",
      "pbrMetallicRoughness": {
        "baseColorTexture": {
          "index": 0
        },
        "metallicFactor": 0.03808524736212784,
        "roughnessFactor": 0.694862883881727
      }
    },
    {
      "alphaMode": "BLEND",
      "doubleSided": true,
      "extensions": {
        "KHR_materials_transmission": {
          "transmissionFactor": 0.8405275395668971
        }
      },
      "name": "Glass",
      "pbrMetallicRoughness": {
        "baseColorFactor": [
          1.0,
          1.0,
          1.0,
          0.25
        ],
        "baseColorTexture": {
          "index": 0
        },
        "metallicFactor": 0.29299839481117557,
        "roughnessFactor": 0.245730195519119
      }
    },
    {
      "doubleSided": true,
      "name": "Metal",
      "pbrMetallicRoughness": {
        "baseColorTexture": {
          "index": 0
        },
        "metallicFactor": 0.6510906733705522,
        "roughnessFactor": 0.543128867543008
      }
    }
  ],
  "meshes": [
    {
      "name": "Cube.001_blender_0",
      "primitives": [
        {
          "attributes": {
            "NORMAL": 1,
            "POSITION": 0,
            "TEXCOORD_0": 2
          },
          "indices": 3,
          "material": 0,
          "mode": 4
        }
      ]
    },
    {
      "name": "Cube.001_Glass_0",
      "primitives": [
        {
          "attributes": {
            "NORMAL": 5,
            "POSITION": 4,
            "TEXCOORD_0": 6
          },
          "indices": 7,
          "material": 1,
          "mode": 4
        }
      ]
    },
    {
      "name": "Cube.001_Metal_0",
      "primitives": [
        {
          "attributes": {
            "NORMAL": 9,
            "POSITION": 8,
            "TEXCOORD_0": 10
          },
          "indices": 11,
          "material": 2,
          "mode": 4
        }
      ]
    }
  ],
  "nodes": [
    {
      "children": [
        1
      ],
      "matrix": [
        1.0,
        0.0,
        0.0,
        0.0,
        0.0,
        2.220446049250313e-16,
        -1.0,
        0.0,
        0.0,
        1.0,
        2.220446049250313e-16,
        0.0,
        0.0,
        0.0,
        0.0,
        1.0
      ],
      "name": "Sketchfab_model"
    },
    {
      "children": [
        2
      ],
      "matrix": [
        0.009999999776482582,
        0.0,
        0.0,
        0.0,
        0.0,
        0.0,
        0.009999999776482582,
        0.0,
        0.0,
        -0.009999999776482582,
        0.0,
        0.0,
        0.0,
        0.0,
        0.0,
        1.0
      ],
      "name": "cbfa5a1f7a0a40b19c2cd3cbce47c95f.fbx"
    },
    {
      "children": [
        3
      ],
      "name": "RootNode"
    },
    {
      "children": [
        4,
        5,
        6
      ],
      "matrix": [
        100.0,
        0.0,
        0.0,
        0.0,
        0.0,
        -1.629206793918314e-05,
        -99.99999999999868,
        0.0,
        0.0,
        99.99999999999868,
        -1.629206793918314e-05,
        0.0,
        0.0,
        109.74297332763672,
        0.0,
        1.0
      ],
      "name": "Cube.001"
    },
    {
      "mesh": 0,
      "name": "Cube.001_blender_0"
    },
    {
      "mesh": 1,
      "name": "Cube.001_Glass_0"
    },
    {
      "mesh": 2,
      "name": "Cube.001_Metal_0"
    }
  ],
  "samplers": [
    {
      "magFilter": 9729,
      "minFilter": 9987,
      "wrapS": 10497,
      "wrapT": 10497
    }
  ],
  "scene": 0,
  "scenes": [
    {
      "name": "Sketchfab_Scene",
      "nodes": [
        0
      ]
    }
  ],
  "textures": [
    {
      "sampler": 0,
      "source": 0
    }
  ]
}
